# xmcd CD database file
#
# Track frame offsets:
#	150
#	11441
#	23577
#	36581
#	49265
#	60115
#	71214
#	83267
#	94475
#	107490
#
# Disc length: 1585 seconds
#
# Revision: 0
# Processed by: cddbd v1.5.2PL0 Copyright (c) Steve Scherf et al.
# Submitted via: CDex 1.50
#
DISCID=74062f0a
DTITLE=Johnny Cash - Great Country Performances: Vol.1
DYEAR=2006
DGENRE=Country
TTITLE0=Cry Cry Cry
TTITLE1=So Doggone Lonsome
TTITLE2=Folsom Prison Blues
TTITLE3=I Walk The Line
TTITLE4=There You Go
TTITLE5=Train Of Love
TTITLE6=Thanks A Lot
TTITLE7=I Love You Because
TTITLE8=Give My Love To Rose
TTITLE9=Don't Make Me Go
EXTD=YEAR: 2006
EXTT0=
EXTT1=
EXTT2=
EXTT3=
EXTT4=
EXTT5=
EXTT6=
EXTT7=
EXTT8=
EXTT9=
PLAYORDER=
